<?xml version="1.0" encoding="UTF-8"?>
<svg xmlns="http://www.w3.org/2000/svg" xmlns:xlink="http://www.w3.org/1999/xlink" version="1.1" viewBox="0 0 130 40">
  <defs>
    <style>
      .cls-1 {
        fill: none;
        fill-rule: evenodd;
        stroke: url(#linear-gradient);
        stroke-miterlimit: 10;
        stroke-width: 3px;
      }

      .cls-2 {
        fill: url(#linear-gradient-3);
      }

      .cls-3 {
        fill: url(#linear-gradient-2);
      }

      .cls-4 {
        fill: #1b1b1f;
      }
    </style>
    <linearGradient id="linear-gradient" x1="-.6" y1="20" x2="36.6" y2="20" gradientUnits="userSpaceOnUse">
      <stop offset="0" stop-color="#ff5601"/>
      <stop offset=".5" stop-color="#ff4000"/>
      <stop offset="1" stop-color="#ff1f01"/>
    </linearGradient>
    <linearGradient id="linear-gradient-2" x1="4.8" y1="15.9" x2="31.1" y2="15.9" xlink:href="#linear-gradient"/>
    <linearGradient id="linear-gradient-3" x1="12.5" y1="28.3" x2="23.4" y2="28.3" xlink:href="#linear-gradient"/>
  </defs>
  <!-- Generator: Adobe Illustrator 28.7.1, SVG Export Plug-In . SVG Version: 1.2.0 Build 142)  -->
  <g>
    <g id="Layer_1">
      <path class="cls-1" d="M33.8,9.6l.9-2.3s-1.2-1.3-2.6-2.7c-1.4-1.4-4.5-.6-4.5-.6L24.1,0h-12.3l-3.5,4s-3.1-.9-4.5.6c-1.4,1.4-2.6,2.7-2.6,2.7l.9,2.3-1.2,3.4s3.5,13.3,3.9,14.9c.8,3.2,1.4,4.4,3.7,6,2.3,1.6,6.5,4.4,7.2,4.9.7.4,1.5,1.2,2.3,1.2s1.6-.7,2.3-1.2c.7-.4,4.9-3.2,7.2-4.9,2.3-1.6,2.9-2.9,3.7-6,.4-1.6,3.9-14.9,3.9-14.9l-1.2-3.4Z"/>
      <path class="cls-3" d="M22.3,7.2c.5,0,4.3-.7,4.3-.7,0,0,4.5,5.4,4.5,6.6s-.4,1.3-.8,1.8c0,0-.2.2-.3.3l-3.4,3.6s0,0-.1.1c-.3.3-.8.8-.5,1.7,0,0,0,.1,0,.2.4.9.9,2,.3,3.1-.6,1.2-1.7,2-2.4,1.9-.7-.1-2.4-1-3-1.4-.6-.4-2.5-2-2.5-2.6s1.4-1.3,2.1-1.8c.1,0,.2-.1.3-.2,0,0,.2-.1.3-.2.6-.4,1.7-1.1,1.7-1.4,0-.4,0-.5-.5-1.4-.1-.2-.2-.4-.4-.6-.5-.8-1-1.7-.9-2.4.1-.7,1.3-1.2,2.3-1.5.1,0,.2,0,.4-.1.3-.1.6-.2,1-.4,1-.4,2.1-.8,2.2-.9.2-.1.2-.2-.6-.3,0,0-.2,0-.4,0-.9,0-2.6-.3-3.5,0-.2,0-.3,0-.5.1-.9.3-2.1.6-2.2.7,0,0,0,0,0,0-.1.1-.2.2,0,.9,0,.2.1.6.2,1,.3,1.3.7,3.4.7,3.9,0,0,0,.1,0,.2,0,.5.1.9-.5,1,0,0-.1,0-.2,0-.7.2-1.7.4-2.1.4s-1.4-.2-2.1-.4c0,0-.1,0-.2,0-.6-.1-.6-.5-.5-1,0,0,0-.1,0-.2,0-.5.5-2.6.7-3.9,0-.5.2-.8.2-1,.1-.6,0-.7,0-.9,0,0,0,0,0,0-.1-.2-1.3-.5-2.2-.7-.2,0-.4-.1-.5-.1-.8-.2-2.5,0-3.5,0-.1,0-.3,0-.4,0-.7,0-.8.2-.6.3.2,0,1.3.5,2.2.8.4.1.7.3,1,.4.1,0,.2,0,.4.1,1,.4,2.1.8,2.3,1.5.1.6-.4,1.6-.9,2.4-.1.2-.3.4-.4.6-.5.9-.5,1-.5,1.4,0,.3,1.1,1,1.7,1.4.1,0,.3.2.3.2,0,0,.2.1.3.2.7.4,2.1,1.3,2.1,1.8s-1.9,2.2-2.5,2.6c-.6.4-2.3,1.3-3,1.4-.7.1-1.8-.7-2.4-1.9-.6-1.1-.1-2.2.3-3.1,0,0,0-.1,0-.2.3-.8-.1-1.3-.5-1.7,0,0,0,0-.1-.1l-3.4-3.6c0-.1-.2-.2-.3-.3-.5-.4-.8-.8-.8-1.8s4.5-6.6,4.5-6.6c0,0,3.8.7,4.3.7s1.2-.3,2-.6c.2,0,.4-.1.6-.2,1-.3,1.7-.3,1.7-.3,0,0,.7,0,1.7.3.2,0,.4.1.6.2.8.3,1.6.6,2,.6Z"/>
      <path class="cls-2" d="M21.7,26.4c.8.4,1.4.7,1.6.8.3.2.1.5-.1.7-.3.2-3.7,2.8-4,3.1,0,0,0,0-.1.1-.3.3-.7.7-1,.7s-.7-.4-1-.7c0,0,0,0-.1-.1-.3-.3-3.7-2.9-4-3.1-.3-.2-.4-.5-.1-.7.2-.1.8-.4,1.6-.8.2-.1.5-.3.8-.4,1.2-.6,2.7-1.1,2.9-1.1s1.7.5,2.9,1.1c.3.1.5.3.8.4Z"/>
      <path class="cls-4" d="M50.4,13.5c1-.5,2.2-.8,3.5-.8s2.9.4,4.1,1.1c1.2.7,2.2,1.8,2.9,3.2.7,1.4,1.1,3,1.1,4.8s-.4,3.4-1.1,4.8c-.7,1.4-1.7,2.5-2.9,3.3-1.2.8-2.6,1.2-4.1,1.2s-2.5-.3-3.5-.8c-1-.5-1.8-1.2-2.4-2v2.5h-4.5V7h4.5v8.6c.6-.9,1.4-1.5,2.4-2.1h0ZM56.7,19c-.4-.8-1-1.4-1.7-1.8-.7-.4-1.5-.6-2.3-.6s-1.6.2-2.3.6c-.7.4-1.3,1-1.7,1.8-.4.8-.7,1.7-.7,2.8s.2,2,.7,2.8c.4.8,1,1.4,1.7,1.8.7.4,1.5.6,2.3.6s1.6-.2,2.3-.6c.7-.4,1.3-1,1.7-1.8.4-.8.7-1.7.7-2.8s-.2-2-.7-2.8h0Z"/>
      <path class="cls-4" d="M70,13.5c.9-.5,2-.8,3.2-.8v4.7h-1.2c-1.4,0-2.5.3-3.2,1-.7.7-1.1,1.8-1.1,3.5v8.8h-4.5V13h4.5v2.8c.6-.9,1.3-1.7,2.3-2.2h0Z"/>
      <path class="cls-4" d="M74.9,17c.7-1.4,1.7-2.5,2.9-3.2,1.2-.7,2.6-1.1,4.1-1.1s2.5.3,3.5.8c1,.5,1.8,1.2,2.4,2v-2.5h4.5v17.8h-4.5v-2.6c-.6.8-1.4,1.5-2.4,2.1-1,.5-2.2.8-3.5.8s-2.9-.4-4.1-1.2c-1.2-.8-2.2-1.9-2.9-3.3-.7-1.4-1.1-3-1.1-4.8s.4-3.4,1.1-4.8h0ZM87.1,19c-.4-.8-1-1.4-1.7-1.8-.7-.4-1.5-.6-2.3-.6s-1.6.2-2.3.6c-.7.4-1.3,1-1.7,1.8-.4.8-.7,1.7-.7,2.8s.2,2,.7,2.8c.4.8,1,1.4,1.7,1.8.7.4,1.5.6,2.3.6s1.6-.2,2.3-.6c.7-.4,1.3-1,1.7-1.8.4-.8.6-1.7.6-2.8s-.2-2-.6-2.8h0Z"/>
      <path class="cls-4" d="M102.8,26.6l4.5-13.6h4.8l-6.6,17.7h-5.4l-6.5-17.7h4.8l4.5,13.6h0Z"/>
      <path class="cls-4" d="M129.1,23.2h-13c.1,1.3.6,2.3,1.3,3,.8.7,1.8,1.1,2.9,1.1,1.7,0,2.9-.7,3.6-2.1h4.8c-.5,1.7-1.5,3.1-2.9,4.2-1.5,1.1-3.2,1.7-5.4,1.7s-3.2-.4-4.6-1.1c-1.4-.8-2.4-1.8-3.2-3.2-.8-1.4-1.1-3-1.1-4.8s.4-3.5,1.1-4.8c.7-1.4,1.8-2.5,3.1-3.2s2.9-1.1,4.6-1.1,3.2.4,4.5,1.1c1.3.7,2.4,1.8,3.1,3.1.7,1.3,1.1,2.9,1.1,4.6s0,1.2-.1,1.7h0ZM124.5,20.2c0-1.2-.4-2.1-1.2-2.8-.8-.7-1.8-1-3-1s-2,.3-2.8,1c-.8.7-1.2,1.6-1.4,2.8h8.4,0Z"/>
    </g>
  </g>
</svg>