<svg width="130" height="40" viewBox="0 0 130 40" fill="none" xmlns="http://www.w3.org/2000/svg">
<path fill-rule="evenodd" clip-rule="evenodd" d="M33.8074 9.57574L34.7447 7.27787C34.7447 7.27787 33.5518 6.00128 32.1034 4.55447C30.655 3.10766 27.5877 3.95872 27.5877 3.95872L24.0944 0H17.9598H11.8252L8.33192 3.95872C8.33192 3.95872 5.26464 3.10766 3.81619 4.55447C2.36775 6.00128 1.17492 7.27787 1.17492 7.27787L2.11215 9.57574L0.919312 12.98C0.919312 12.98 4.42752 26.2528 4.83862 27.8736C5.64805 31.0651 6.20186 32.2991 8.50233 33.9162C10.8028 35.5332 14.9777 38.3417 15.6593 38.7672C16.341 39.1928 17.193 39.9176 17.9598 39.9176C18.7266 39.9176 19.5786 39.1928 20.2603 38.7672C20.9419 38.3417 25.1168 35.5332 27.4173 33.9162C29.7177 32.2991 30.2715 31.0651 31.081 27.8736C31.492 26.2528 35.0003 12.98 35.0003 12.98L33.8074 9.57574Z" fill="url(#paint0_linear_1223_4227)"/>
<path d="M22.3051 7.19284C22.8163 7.19284 26.6078 6.46943 26.6078 6.46943C26.6078 6.46943 31.101 11.895 31.101 13.0545C31.101 14.0133 30.7146 14.3885 30.2596 14.8305C30.1643 14.9231 30.0659 15.0186 29.9675 15.123L26.5984 18.6965C26.565 18.7319 26.5279 18.7693 26.4885 18.8088C26.1522 19.1465 25.657 19.6439 26.0064 20.4699C26.0298 20.5251 26.0538 20.5812 26.0782 20.6381C26.4613 21.5331 26.9342 22.6378 26.3323 23.7573C25.6919 24.9482 24.5949 25.743 23.892 25.6116C23.1891 25.4801 21.5383 24.6184 20.9312 24.2248C20.3241 23.8311 18.4001 22.2461 18.4001 21.6396C18.4001 21.1339 19.7838 20.2924 20.4561 19.8836C20.5898 19.8023 20.6954 19.738 20.7564 19.697C20.8258 19.6503 20.9418 19.5783 21.0847 19.4896C21.6983 19.1088 22.8063 18.4212 22.8342 18.1163C22.8684 17.7404 22.8554 17.6302 22.3608 16.7015C22.2556 16.504 22.1326 16.2925 22.0054 16.0739C21.5344 15.2645 21.007 14.3581 21.1238 13.7088C21.2555 12.9759 22.4052 12.5557 23.3791 12.1998C23.5008 12.1553 23.6198 12.1118 23.7337 12.0688C24.0179 11.9616 24.375 11.828 24.7481 11.6884C25.7204 11.3246 26.8007 10.9204 26.9789 10.8384C27.2255 10.7248 27.1618 10.6166 26.4148 10.5459C26.316 10.5365 26.1931 10.5235 26.0521 10.5085C25.1275 10.4103 23.4221 10.2293 22.593 10.4602C22.4299 10.5056 22.2471 10.555 22.0554 10.6069C21.1239 10.8588 19.9824 11.1676 19.8727 11.3456C19.8535 11.3767 19.8347 11.4035 19.8169 11.4288C19.712 11.5778 19.6436 11.6749 19.7597 12.3079C19.7942 12.4964 19.8653 12.8672 19.9532 13.3256C20.2105 14.6679 20.6118 16.7618 20.6624 17.2322C20.6695 17.2981 20.6773 17.3616 20.6848 17.4227C20.7491 17.9475 20.792 18.2967 20.1818 18.4361C20.131 18.4477 20.0777 18.4599 20.0222 18.4726C19.3338 18.6304 18.3244 18.8618 17.9598 18.8618C17.5949 18.8618 16.5848 18.6302 15.8964 18.4724C15.8413 18.4598 15.7882 18.4476 15.7377 18.4361C15.1275 18.2967 15.1703 17.9475 15.2347 17.4227C15.2422 17.3616 15.25 17.2981 15.2571 17.2322C15.3077 16.7612 15.7101 14.6621 15.9674 13.3201C16.0548 12.8642 16.1254 12.4956 16.1599 12.3079C16.2759 11.675 16.2075 11.5778 16.1026 11.4288C16.0848 11.4035 16.066 11.3768 16.0468 11.3456C15.9371 11.1676 14.7957 10.8589 13.8642 10.6069C13.6724 10.555 13.4896 10.5056 13.3265 10.4602C12.4974 10.2293 10.7922 10.4103 9.86747 10.5085C9.72639 10.5234 9.60348 10.5365 9.50461 10.5459C8.75773 10.6166 8.694 10.7248 8.94057 10.8384C9.11873 10.9204 10.1985 11.3244 11.1706 11.6881C11.544 11.8278 11.9014 11.9616 12.1858 12.0688C12.2998 12.1118 12.4188 12.1553 12.5406 12.1998C13.5144 12.5558 14.664 12.976 14.7958 13.7088C14.9125 14.358 14.3852 15.2642 13.9143 16.0735C13.7871 16.2923 13.6639 16.5039 13.5587 16.7015C13.0641 17.6302 13.051 17.7404 13.0853 18.1163C13.1131 18.4211 14.2207 19.1085 14.8344 19.4894C14.9774 19.5781 15.0936 19.6503 15.1631 19.697C15.224 19.738 15.3295 19.8022 15.4631 19.8834C16.1353 20.2922 17.5193 21.1338 17.5193 21.6396C17.5193 22.2461 15.5954 23.8311 14.9883 24.2248C14.3813 24.6184 12.7305 25.4801 12.0275 25.6116C11.3246 25.743 10.2276 24.9482 9.58726 23.7573C8.98533 22.6379 9.45813 21.5332 9.84115 20.6384C9.86556 20.5813 9.88961 20.5251 9.91299 20.4699C10.2625 19.6438 9.76716 19.1464 9.43083 18.8087C9.39151 18.7692 9.35437 18.7319 9.321 18.6965L5.95193 15.123C5.85352 15.0186 5.75521 14.9231 5.65991 14.8305C5.20485 14.3886 4.81848 14.0133 4.81848 13.0545C4.81848 11.895 9.31172 6.46943 9.31172 6.46943C9.31172 6.46943 13.1032 7.19284 13.6144 7.19284C14.0224 7.19284 14.8101 6.92188 15.6312 6.63943C15.8391 6.56791 16.0491 6.49566 16.2557 6.42688C17.2781 6.08645 17.9598 6.08398 17.9598 6.08398C17.9598 6.08398 18.6414 6.08645 19.6638 6.42688C19.8704 6.49566 20.0804 6.56791 20.2883 6.63943C21.1095 6.92188 21.8972 7.19284 22.3051 7.19284Z" fill="white"/>
<path d="M21.6543 26.3835C22.4558 26.7961 23.0244 27.0888 23.2394 27.2232C23.5175 27.3971 23.3479 27.725 23.0946 27.9039C22.8412 28.0828 19.4364 30.7164 19.106 31.0074C19.0637 31.0447 19.0189 31.085 18.9722 31.1271C18.6538 31.4137 18.2477 31.7793 17.9597 31.7793C17.6717 31.7793 17.2653 31.4134 16.9469 31.1267C16.9004 31.0848 16.8557 31.0446 16.8135 31.0074C16.483 30.7164 13.0783 28.0828 12.8249 27.9039C12.5715 27.725 12.402 27.3971 12.6801 27.2232C12.8952 27.0887 13.4644 26.7957 14.2667 26.3828C14.5019 26.2617 14.757 26.1304 15.0292 25.9897C16.2298 25.3691 17.7262 24.8415 17.9597 24.8415C18.1933 24.8415 19.6896 25.3691 20.8904 25.9897C21.1631 26.1307 21.4187 26.2623 21.6543 26.3835Z" fill="white"/>
<path d="M50.3721 13.4709C51.3866 12.936 52.5465 12.6686 53.8488 12.6686C55.3663 12.6686 56.7384 13.0436 57.9651 13.7907C59.1919 14.5378 60.1657 15.6017 60.8808 16.9797C61.5959 18.3576 61.9535 19.9535 61.9535 21.7703C61.9535 23.5872 61.5959 25.1948 60.8808 26.593C60.1657 27.9913 59.1919 29.0756 57.9651 29.8459C56.7355 30.6163 55.3634 31 53.8488 31C52.5233 31 51.3663 30.7384 50.3721 30.2151C49.3779 29.6919 48.5814 29.0145 47.9855 28.1802V30.7122H43.5V7H47.9855V15.5552C48.561 14.7006 49.3576 14.0058 50.3721 13.4738V13.4709ZM56.718 19C56.2791 18.2209 55.7035 17.6279 54.9884 17.2209C54.2733 16.814 53.4971 16.6134 52.6657 16.6134C51.8343 16.6134 51.0901 16.8227 50.375 17.2384C49.6599 17.6541 49.0814 18.2587 48.6454 19.0494C48.2064 19.8401 47.9884 20.7704 47.9884 21.8372C47.9884 22.9041 48.2064 23.8343 48.6454 24.625C49.0843 25.4157 49.6599 26.0174 50.375 26.436C51.0901 26.8517 51.8547 27.061 52.6657 27.061C53.4767 27.061 54.2733 26.8488 54.9884 26.4215C55.7035 25.9942 56.282 25.3866 56.718 24.5959C57.157 23.8052 57.375 22.8663 57.375 21.7762C57.375 20.686 57.157 19.7849 56.718 19.0058V19Z" fill="#1B1B1F"/>
<path d="M70.0466 13.503C70.9768 12.9681 72.0378 12.7007 73.2355 12.7007V17.41H72.0495C70.6396 17.41 69.5756 17.7414 68.8605 18.4042C68.1454 19.067 67.7878 20.221 67.7878 21.8635V30.7065H63.3024V12.9565H67.7878V15.7123C68.3634 14.7734 69.1163 14.035 70.0466 13.5001V13.503Z" fill="#1B1B1F"/>
<path d="M74.8837 16.997C75.5988 15.6074 76.5698 14.5406 77.7994 13.7935C79.0262 13.0464 80.4012 12.6714 81.9157 12.6714C83.2413 12.6714 84.3982 12.9388 85.3924 13.4737C86.3866 14.0086 87.1802 14.6801 87.7791 15.4912V12.9592H92.2965V30.7092H87.7791V28.1132C87.2035 28.9475 86.407 29.6365 85.3924 30.1801C84.3779 30.7237 83.2093 30.997 81.8837 30.997C80.3895 30.997 79.0262 30.6132 77.7994 29.8429C76.5698 29.0725 75.5988 27.9912 74.8837 26.59C74.1686 25.1917 73.811 23.5842 73.811 21.7673C73.811 19.9505 74.1686 18.3807 74.8837 16.9941V16.997ZM87.1395 19.0319C86.7122 18.2528 86.1366 17.6539 85.4099 17.2382C84.6831 16.8226 83.9041 16.6132 83.0698 16.6132C82.2355 16.6132 81.468 16.8167 80.7616 17.2208C80.0581 17.6278 79.4855 18.2208 79.0465 18.9999C78.6075 19.7789 78.3895 20.7034 78.3895 21.7702C78.3895 22.8371 78.6075 23.7731 79.0465 24.5725C79.4855 25.3749 80.061 25.9882 80.7761 26.4156C81.4913 26.8429 82.2558 27.0551 83.0668 27.0551C83.8779 27.0551 84.6802 26.8458 85.407 26.4301C86.1337 26.0144 86.7093 25.4156 87.1366 24.6365C87.5639 23.8574 87.7762 22.9214 87.7762 21.8342C87.7762 20.747 87.561 19.8109 87.1366 19.0319H87.1395Z" fill="#1B1B1F"/>
<path d="M102.808 26.5787L107.294 12.9595H112.067L105.497 30.7095H100.05L93.5117 12.9595H98.317L102.802 26.5787H102.808Z" fill="#1B1B1F"/>
<path d="M129.052 23.1801H116.076C116.183 24.4621 116.631 25.465 117.421 26.1917C118.212 26.9185 119.183 27.2819 120.337 27.2819C122.003 27.2819 123.189 26.5667 123.895 25.1336H128.733C128.221 26.8429 127.238 28.247 125.785 29.3458C124.331 30.4475 122.549 30.997 120.433 30.997C118.724 30.997 117.192 30.6191 115.834 29.8603C114.477 29.1016 113.421 28.0289 112.663 26.6394C111.904 25.2499 111.526 23.6481 111.526 21.8342C111.526 20.0202 111.898 18.3836 112.648 16.997C113.395 15.6074 114.442 14.5406 115.788 13.7935C117.134 13.0464 118.683 12.6714 120.433 12.6714C122.183 12.6714 123.631 13.0348 124.968 13.7615C126.302 14.4882 127.34 15.5202 128.076 16.8545C128.811 18.1888 129.18 19.7237 129.18 21.4534C129.18 22.0929 129.137 22.6714 129.052 23.183V23.1801ZM124.535 20.1685C124.514 19.0144 124.096 18.09 123.285 17.3981C122.474 16.7034 121.48 16.3574 120.305 16.3574C119.195 16.3574 118.259 16.6946 117.503 17.3662C116.744 18.0377 116.279 18.9737 116.11 20.1685H124.538H124.535Z" fill="#1B1B1F"/>
<defs>
<linearGradient id="paint0_linear_1223_4227" x1="0.919312" y1="40.1992" x2="35.0003" y2="40.1992" gradientUnits="userSpaceOnUse">
<stop stop-color="#FF5601"/>
<stop offset="0.5" stop-color="#FF4000"/>
<stop offset="1" stop-color="#FF1F01"/>
</linearGradient>
</defs>
</svg>
